# xmcd CD database file
#
# Track frame offsets:
#	150
#	15368
#	29085
#	42355
#	56032
#	67008
#	81731
#	95435
#	110183
#	125064
#	137938
#	152228
#	167226
#	180270
#	194670
#	208400
#	221361
#	236146
#	250721
#	263497
#	275210
#	288424
#	301336
#
# Disc length: 4160 seconds
#
# Revision: 0
# Processed by: cddbd v1.5.2PL0 Copyright (c) Steve Scherf et al.
# Submitted via: CDex 1.51
#
DISCID=6e103e17
DTITLE=Diverse - Classic Blues - Trouble In Mind
DYEAR=2007
DGENRE=Blues
TTITLE0=Mamie Smith - Crazy Blues
TTITLE1=Bessie and Clara Smith - Far Away Blues
TTITLE2=Gertrude 'Ma' Rainey - Southern Blues
TTITLE3=Edmonia Henderson - Travelling Blues
TTITLE4=Ida Cox - Wild Woman Don't Have The Blues
TTITLE5=Bessie Smith - Cold In Hand Blues
TTITLE6=Trixie Smith - The Railroad Blues
TTITLE7=Clara Smith - Shipwreck Blues
TTITLE8=Ida Cox - Coffin Blues
TTITLE9=Bertha Chippie Hill - Trouble In Mind
TTITLE10=Sippie Wallace - Jack O'Diamonds Blues
TTITLE11=Alberta Hunter - Beale Street Blues
TTITLE12=Sarah Martin - Death Sting Me Blues
TTITLE13=Victoria Spivey - Dirty T.B. Blues
TTITLE14=Bessie Smith - In The House Blues
TTITLE15=Blind Lemon Jefferson - Black Snake Moan
TTITLE16=Barbecue Bob - Motherless Chile Blues
TTITLE17=Blind Willie Johnson - Dark Was The Night-Cold Was The Ground
TTITLE18=Ramblin' Thomas - I'm So Lonesome
TTITLE19=Blind Blake - CC Pill Blues
TTITLE20=Texas Alexander - 'Frisco Train Blues
TTITLE21=Big Bill (Broonzy) - How You Want It Done?
TTITLE22=Robert Johnson - Cross Road Blues
EXTD=YEAR: 2007
EXTT0=
EXTT1=
EXTT2=
EXTT3=
EXTT4=
EXTT5=
EXTT6=
EXTT7=
EXTT8=
EXTT9=
EXTT10=
EXTT11=
EXTT12=
EXTT13=
EXTT14=
EXTT15=
EXTT16=
EXTT17=
EXTT18=
EXTT19=
EXTT20=
EXTT21=
EXTT22=
PLAYORDER=
